<?xml version="1.0" encoding="UTF-8"?>
<svg version="1.1" xmlns="http://www.w3.org/2000/svg" width="316" height="247">
<path d="M0 0 C104.28 0 208.56 0 316 0 C316 81.51 316 163.02 316 247 C211.72 247 107.44 247 0 247 C0 165.49 0 83.98 0 0 Z " fill="#1F161B" transform="translate(0,0)"/>
<path d="M0 0 C0 4.22653332 -2.29304464 6.63580882 -4.6640625 9.953125 C-5.68472479 11.40894079 -6.70454537 12.86534699 -7.72363281 14.32226562 C-8.53145203 15.47190796 -8.53145203 15.47190796 -9.35559082 16.64477539 C-12.07725376 20.54290952 -14.73758831 24.4820851 -17.3984375 28.421875 C-17.95404861 29.24350128 -18.50965973 30.06512756 -19.08210754 30.91165161 C-20.84760666 33.52362505 -22.61149352 36.13668085 -24.375 38.75 C-24.9914035 39.66287781 -25.60780701 40.57575562 -26.2428894 41.51629639 C-37.32690384 57.93972264 -48.26228458 74.45833313 -59.10498047 91.04199219 C-65.37263412 100.61147915 -71.78411922 110.04711943 -78.42114258 119.36425781 C-81.39240411 123.5380471 -84.2511362 127.77967441 -87.0625 132.0625 C-88.05401031 133.55643925 -89.04621444 135.04991821 -90.0390625 136.54296875 C-90.52665039 137.27692871 -91.01423828 138.01088867 -91.51660156 138.76708984 C-92.00612305 139.5039502 -92.49564453 140.24081055 -93 141 C-93.49983398 141.75361816 -93.99966797 142.50723633 -94.51464844 143.28369141 C-95.9806465 145.48648396 -97.457589 147.68153792 -98.9375 149.875 C-99.37392822 150.53508057 -99.81035645 151.19516113 -100.26000977 151.87524414 C-103.19922355 156.20507805 -106.22217639 159.6110882 -111 162 C-114.69497 162.60560712 -118.39003787 162.83162494 -121.78456116 161.07818604 C-128.58098824 155.84921815 -134.5274947 149.74296808 -140.55859375 143.671875 C-141.75509181 142.47418284 -142.95196197 141.27686231 -144.14918518 140.07989502 C-146.64253016 137.58499454 -149.132505 135.08679665 -151.61987305 132.5859375 C-154.81145212 129.37726818 -158.00967654 126.17532308 -161.21018887 122.97556686 C-163.67509517 120.51038921 -166.13739158 118.04261895 -168.59880257 115.57395172 C-169.77799537 114.39157486 -170.95779648 113.20980435 -172.1382122 112.02864838 C-173.78014335 110.38455665 -175.41874468 108.73722008 -177.05639648 107.08886719 C-177.78956085 106.3563826 -177.78956085 106.3563826 -178.53753662 105.60910034 C-182.92808196 101.17639709 -183.62925335 98.22829162 -183.62109375 92.03515625 C-182.2616828 85.39199707 -176.44764684 80.63176456 -171 77 C-168.73046875 76.6640625 -168.73046875 76.6640625 -166.1875 76.625 C-165.35605469 76.59664063 -164.52460938 76.56828125 -163.66796875 76.5390625 C-157.19577116 77.65724598 -152.60376658 83.14783556 -148.2109375 87.6640625 C-147.58522858 88.29734467 -146.95951965 88.93062683 -146.31484985 89.58309937 C-144.32996215 91.59227272 -142.35171449 93.60778697 -140.375 95.625 C-137.7635913 98.28962518 -135.14562074 100.94754442 -132.5234375 103.6015625 C-131.92856537 104.21303131 -131.33369324 104.82450012 -130.72079468 105.45449829 C-129.87939438 106.30580826 -129.87939438 106.30580826 -129.02099609 107.17431641 C-128.53279388 107.67299225 -128.04459167 108.17166809 -127.54159546 108.68545532 C-124.94442298 110.90010849 -122.61080088 111.90282713 -119.25 112.4375 C-111.53656751 111.39915332 -105.92105996 105.32940895 -100.7265625 99.94921875 C-99.75183487 98.96100883 -99.75183487 98.96100883 -98.75741577 97.95283508 C-96.70586222 95.87152089 -94.66465313 93.78047266 -92.625 91.6875 C-90.5629691 89.57767686 -88.49874258 87.47019094 -86.42831421 85.36860657 C-85.14553054 84.06601602 -83.86771173 82.75851391 -82.59536743 81.44572449 C-81.10115208 79.92593823 -79.55515132 78.45737235 -78 77 C-77.34 77 -76.68 77 -76 77 C-75.74786743 76.42320496 -75.49573486 75.84640991 -75.23596191 75.25213623 C-73.8440941 72.7159125 -72.26719104 71.01316506 -70.22460938 68.96582031 C-69.45040649 68.18531311 -68.67620361 67.40480591 -67.87854004 66.60064697 C-67.04205933 65.76821472 -66.20557861 64.93578247 -65.34375 64.078125 C-64.48567749 63.21813904 -63.62760498 62.35815308 -62.74353027 61.47210693 C-60.93027533 59.65749174 -59.11449519 57.84539684 -57.29638672 56.03564453 C-54.50385862 53.25384379 -51.72217542 50.46151855 -48.94140625 47.66796875 C-47.18032867 45.90821228 -45.41863106 44.14907605 -43.65625 42.390625 C-42.81976929 41.55009583 -41.98328857 40.70956665 -41.12145996 39.84356689 C-39.96015564 38.69171906 -39.96015564 38.69171906 -38.77539062 37.51660156 C-38.09303345 36.83583557 -37.41067627 36.15506958 -36.7076416 35.45367432 C-35 34 -35 34 -33 34 C-32.73960937 33.40195557 -32.47921875 32.80391113 -32.2109375 32.18774414 C-30.90945201 29.83641118 -29.70094972 28.67979189 -27.625 26.99609375 C-21.75223414 22.02468594 -16.41348717 16.52060845 -11 11.0625 C-9.92862113 9.98609346 -8.85700818 8.90991986 -7.78515625 7.83398438 C-5.18740362 5.22533255 -2.59282038 2.61355529 0 0 Z " fill="#F80B8A" transform="translate(257,32)"/>
<path d="M0 0 C0.99 0.495 0.99 0.495 2 1 C1.29391602 1.70084717 0.58783203 2.40169434 -0.13964844 3.1237793 C-2.77373654 5.73968465 -5.40444611 8.35896579 -8.03417969 10.97924805 C-9.16998784 12.11004623 -10.30669431 13.2399429 -11.44433594 14.36889648 C-13.08508966 15.99743794 -14.72252082 17.629259 -16.359375 19.26171875 C-16.86370056 19.76088303 -17.36802612 20.2600473 -17.88763428 20.77433777 C-20.16093822 23.04728414 -22.24967425 25.32041164 -24.22753906 27.85864258 C-25.10490723 28.9186145 -25.10490723 28.9186145 -26 30 C-26.66 30 -27.32 30 -28 30 C-28.20181885 30.52779053 -28.4036377 31.05558105 -28.61157227 31.59936523 C-30.61960027 35.07130816 -33.366553 37.61146917 -36.21484375 40.41015625 C-36.82638809 41.0188707 -37.43793243 41.62758514 -38.06800842 42.25474548 C-40.0198515 44.19541855 -41.97852982 46.12902409 -43.9375 48.0625 C-45.25241228 49.36737602 -46.56687062 50.67270964 -47.88085938 51.97851562 C-50.77962297 54.85765069 -53.68270857 57.73234462 -56.58970642 60.60316467 C-57.59271828 61.59660492 -58.56107811 62.62556408 -59.50367737 63.67649841 C-61 65 -61 65 -63.8203125 65.0234375 C-67.78385874 63.74770149 -70.0862033 61.58051825 -72.875 58.625 C-73.37257813 58.13 -73.87015625 57.635 -74.3828125 57.125 C-78 53.40843922 -78 53.40843922 -78 50 C-78.58426758 49.7417041 -79.16853516 49.4834082 -79.77050781 49.21728516 C-82.17716622 47.90326864 -83.75319337 46.47519985 -85.671875 44.5234375 C-86.33574219 43.853125 -86.99960938 43.1828125 -87.68359375 42.4921875 C-88.36550781 41.79351562 -89.04742187 41.09484375 -89.75 40.375 C-90.44738281 39.66859375 -91.14476563 38.9621875 -91.86328125 38.234375 C-93.58012488 36.49401297 -95.29211832 34.74915019 -97 33 C-96.25 30.5625 -96.25 30.5625 -95 28 C-93.2590332 27.125 -93.2590332 27.125 -91 27 C-88.45385742 28.37109375 -88.45385742 28.37109375 -85.60546875 30.4375 C-84.56712891 31.16710937 -83.52878906 31.89671875 -82.45898438 32.6484375 C-80.82177375 33.82050082 -79.18942159 34.99859944 -77.56225586 36.18457031 C-75.98455281 37.32738294 -74.38888365 38.44526088 -72.79296875 39.5625 C-71.8496167 40.24441406 -70.90626465 40.92632812 -69.93432617 41.62890625 C-66.13888122 43.40236651 -64.014796 43.01666217 -60 42 C-57.98725735 41.09813702 -57.98725735 41.09813702 -56.37109375 39.8046875 C-55.74009766 39.34384766 -55.10910156 38.88300781 -54.45898438 38.40820312 C-53.79189453 37.90224609 -53.12480469 37.39628906 -52.4375 36.875 C-50.93770864 35.7765801 -49.43632514 34.68033175 -47.93359375 33.5859375 C-47.13808105 33.00295898 -46.34256836 32.41998047 -45.52294922 31.81933594 C-41.08137444 28.61645078 -36.53616638 25.56667073 -32 22.5 C-15.79503663 11.53892898 -15.79503663 11.53892898 0 0 Z " fill="#EF0981" transform="translate(201,61)"/>
<path d="M0 0 C-0.51331461 4.16662395 -2.73058101 6.06266573 -5.6640625 8.921875 C-6.13435883 9.38555481 -6.60465515 9.84923462 -7.08920288 10.32696533 C-8.5941856 11.80859836 -10.10891332 13.2797384 -11.625 14.75 C-13.11798788 16.20756763 -14.60869091 17.66736183 -16.0965271 19.13018799 C-17.46057595 20.46979483 -18.83093175 21.80297087 -20.20166016 23.13574219 C-22.36530594 25.29541547 -24.37656166 27.55485861 -26.37475586 29.86816406 C-29.90541138 33.94342793 -33.63805898 37.76648223 -37.46484375 41.5625 C-38.14301651 42.23925781 -38.82118927 42.91601562 -39.51991272 43.61328125 C-41.65674305 45.74457675 -43.79704823 47.87234218 -45.9375 50 C-47.39932123 51.45679779 -48.86091187 52.91382701 -50.32226562 54.37109375 C-53.878854 57.91673973 -57.43856016 61.45922739 -61 65 C-61.66 64.67 -62.32 64.34 -63 64 C-62.12786865 63.13310547 -61.2557373 62.26621094 -60.35717773 61.37304688 C-57.09122598 58.12533208 -53.82869701 54.87419673 -50.56713867 51.62207031 C-49.16082925 50.22075867 -47.75361978 48.82034964 -46.34545898 47.42089844 C-44.30990344 45.39760962 -42.27771469 43.37098872 -40.24609375 41.34375 C-39.31596718 40.42136536 -39.31596718 40.42136536 -38.36705017 39.48034668 C-34.63135896 35.74512567 -31.11290214 31.88129973 -27.65904236 27.8848877 C-25.30165665 25.20659122 -22.81570723 22.70375408 -20.28515625 20.1875 C-19.78455185 19.68831055 -19.28394745 19.18912109 -18.76817322 18.67480469 C-17.20199236 17.1141263 -15.63233529 15.55700153 -14.0625 14 C-12.98609346 12.92862113 -11.90991986 11.85700818 -10.83398438 10.78515625 C-8.22533255 8.18740362 -5.61355529 5.59282038 -3 3 C-6.3 4.98 -9.6 6.96 -13 9 C-11.9033819 5.7101457 -11.36014615 5.25613427 -8.625 3.375 C-7.71621094 2.73691406 -7.71621094 2.73691406 -6.7890625 2.0859375 C-4.54613726 0.72451126 -2.63979949 0 0 0 Z " fill="#670E3E" transform="translate(205,59)"/>
<path d="M0 0 C0.495 0.99 0.495 0.99 1 2 C-0.30929914 5.10097164 -1.73477775 7.67154966 -3.8515625 10.29296875 C-6.18739891 13.23612262 -8.19443071 16.32239165 -10.1875 19.5 C-17.04514918 30.29220221 -24.42525393 40.70082211 -32 51 C-32 47.49636898 -31.29111796 46.55630657 -29.38549805 43.68383789 C-28.81457932 42.81606216 -28.24366058 41.94828644 -27.65544128 41.05421448 C-27.03051285 40.11980026 -26.40558441 39.18538605 -25.76171875 38.22265625 C-25.12514847 37.25976181 -24.48857819 36.29686737 -23.8327179 35.30479431 C-21.79070934 32.21973428 -19.73908516 29.14119762 -17.6875 26.0625 C-16.31515308 23.99063308 -14.9434008 21.91837216 -13.57226562 19.84570312 C-11.05251541 16.04335923 -8.5321972 12.24141523 -6.00268555 8.44555664 C-5.4941655 7.68183243 -4.98564545 6.91810822 -4.4617157 6.13124084 C-3.02893065 4.04218207 -1.53521447 2.01463765 0 0 Z " fill="#700F44" transform="translate(227,78)"/>
<path d="M0 0 C-1.40789849 3.19185523 -3.08599275 5.33245127 -5.5546875 7.78515625 C-6.25207031 8.48060547 -6.94945312 9.17605469 -7.66796875 9.89257812 C-8.39628906 10.60865234 -9.12460938 11.32472656 -9.875 12.0625 C-10.59558594 12.78244141 -11.31617188 13.50238281 -12.05859375 14.24414062 C-15.24507107 17.40421067 -18.35511789 20.36814653 -22 23 C-22.66 22.67 -23.32 22.34 -24 22 C-20.90984779 18.86050859 -17.81325304 15.72756243 -14.71044922 12.60058594 C-13.65525491 11.5353174 -12.60186036 10.46826303 -11.55029297 9.39941406 C-10.04080273 7.86573784 -8.52501301 6.33854432 -7.0078125 4.8125 C-6.09660645 3.89082031 -5.18540039 2.96914062 -4.24658203 2.01953125 C-2 0 -2 0 0 0 Z " fill="#E21381" transform="translate(224,66)"/>
<path d="M0 0 C0.90105469 0.01804687 1.80210938 0.03609375 2.73046875 0.0546875 C3.41753906 0.07789062 4.10460937 0.10109375 4.8125 0.125 C4.8125 0.455 4.8125 0.785 4.8125 1.125 C2.9253125 1.0321875 2.9253125 1.0321875 1 0.9375 C-5.16535728 1.62362879 -9.03079037 5.62026341 -12.98828125 10.046875 C-16.06092617 14.34748637 -16.67219753 17.92859156 -16.1875 23.125 C-16.5175 23.125 -16.8475 23.125 -17.1875 23.125 C-17.9942424 17.8861543 -18.28120199 13.78805714 -15.2890625 9.23828125 C-6.79514551 -0.17649729 -6.79514551 -0.17649729 0 0 Z " fill="#E2107F" transform="translate(91.1875,108.875)"/>
<path d="M0 0 C0.33 0.66 0.66 1.32 1 2 C-2.239447 8.15696139 -6.37653694 13.81611717 -11 19 C-11 14.98852124 -9.44339089 13.35081663 -7.1875 10.0625 C-6.47980469 9.02222656 -5.77210938 7.98195312 -5.04296875 6.91015625 C-3.40153105 4.57197061 -1.73388158 2.26990807 0 0 Z " fill="#7C0F4C" transform="translate(185,141)"/>
<path d="M0 0 C0.33 0.66 0.66 1.32 1 2 C-2.80351413 7.82665994 -6.76017897 13.48221873 -11 19 C-11 15.61242144 -10.48686962 14.89612162 -8.59375 12.20703125 C-8.09746094 11.49482422 -7.60117188 10.78261719 -7.08984375 10.04882812 C-6.56519531 9.31083984 -6.04054687 8.57285156 -5.5 7.8125 C-4.97535156 7.06291016 -4.45070312 6.31332031 -3.91015625 5.54101562 C-2.61294236 3.68953762 -1.30941066 1.84286254 0 0 Z " fill="#760E47" transform="translate(168,166)"/>
<path d="M0 0 C-1.50349377 3.66786393 -3.63728792 5.68910393 -6.625 8.25 C-7.44226563 8.95640625 -8.25953125 9.6628125 -9.1015625 10.390625 C-9.72804687 10.92171875 -10.35453125 11.4528125 -11 12 C-11.66 11.67 -12.32 11.34 -13 11 C-11.21427748 9.16052663 -9.42197551 7.32842259 -7.625 5.5 C-7.11710938 4.97535156 -6.60921875 4.45070313 -6.0859375 3.91015625 C-2.2265625 0 -2.2265625 0 0 0 Z " fill="#CD1375" transform="translate(224,66)"/>
<path d="M0 0 C0 3.99904969 -1.72586967 5.80200422 -4 9 C-5.32 8.67 -6.64 8.34 -8 8 C-5.36 5.36 -2.72 2.72 0 0 Z " fill="#9F165D" transform="translate(257,32)"/>
<path d="M0 0 C0.66 0.33 1.32 0.66 2 1 C-1.465 3.97 -1.465 3.97 -5 7 C-5.66 6.34 -6.32 5.68 -7 5 C-4.69 3.35 -2.38 1.7 0 0 Z " fill="#CE1777" transform="translate(201,61)"/>
<path d="M0 0 C-0.66 1.32 -1.32 2.64 -2 4 C-2.99 4 -3.98 4 -5 4 C-5 3.01 -5 2.02 -5 1 C-3 0 -3 0 0 0 Z " fill="#E40E7B" transform="translate(196,67)"/>
</svg>
